<?xml version="1.0" encoding="UTF-8" standalone="no"?><svg xmlns="http://www.w3.org/2000/svg" xmlns:xlink="http://www.w3.org/1999/xlink" contentScriptType="application/ecmascript" contentStyleType="text/css" height="371px" preserveAspectRatio="none" style="width:501px;height:371px;" version="1.1" viewBox="0 0 501 371" width="501px" zoomAndPan="magnify"><defs/><g><ellipse cx="225.4056" cy="282.242" fill="#F8F8F8" rx="33.4056" ry="13.242" style="stroke: #383838; stroke-width: 0.5;"/><text fill="#000000" font-family="Tahoma, sans-serif" font-size="12" lengthAdjust="spacingAndGlyphs" textLength="43" x="203.9056" y="285.9842">actions</text><ellipse cx="187.3492" cy="47.242" fill="#F8F8F8" rx="17.8492" ry="13.242" style="stroke: #383838; stroke-width: 0.5;"/><text fill="#000000" font-family="Tahoma, sans-serif" font-size="12" lengthAdjust="spacingAndGlyphs" textLength="21" x="176.8492" y="50.9842">App</text><ellipse cx="115.6838" cy="47.242" fill="#F8F8F8" rx="41.1838" ry="13.242" style="stroke: #383838; stroke-width: 0.5;"/><text fill="#000000" font-family="Tahoma, sans-serif" font-size="12" font-weight="bold" lengthAdjust="spacingAndGlyphs" textLength="54" x="88.6838" y="50.9842">App.test</text><ellipse cx="33.7487" cy="47.242" fill="#F8F8F8" rx="27.7487" ry="13.242" style="stroke: #383838; stroke-width: 0.5;"/><text fill="#000000" font-family="Tahoma, sans-serif" font-size="12" font-weight="bold" lengthAdjust="spacingAndGlyphs" textLength="35" x="16.2487" y="50.9842">index</text><!--entity _Input--><rect fill="#F8F8F8" height="34.4844" rx="3" ry="3" style="stroke: #000000; stroke-width: 0.5;" width="50" x="286.5" y="326"/><text fill="#000000" font-family="Tahoma, sans-serif" font-size="12" lengthAdjust="spacingAndGlyphs" textLength="30" x="296.5" y="348.0059">Input</text><!--entity _InputForm--><rect fill="#F8F8F8" height="34.4844" rx="3" ry="3" style="stroke: #000000; stroke-width: 0.5;" width="79" x="272" y="265"/><text fill="#000000" font-family="Tahoma, sans-serif" font-size="12" lengthAdjust="spacingAndGlyphs" textLength="59" x="282" y="287.0059">InputForm</text><ellipse cx="184.6421" cy="103.242" fill="#F8F8F8" rx="17.1421" ry="13.242" style="stroke: #383838; stroke-width: 0.5;"/><text fill="#000000" font-family="Tahoma, sans-serif" font-size="12" lengthAdjust="spacingAndGlyphs" textLength="20" x="174.6421" y="106.9842">List</text><!--entity _ListItem--><rect fill="#F8F8F8" height="34.4844" rx="3" ry="3" style="stroke: #000000; stroke-width: 0.5;" width="67" x="92" y="143"/><text fill="#000000" font-family="Tahoma, sans-serif" font-size="12" lengthAdjust="spacingAndGlyphs" textLength="47" x="102" y="165.0059">ListItem</text><ellipse cx="285.2768" cy="46.7554" fill="#F8F8F8" rx="66.7768" ry="15.7554" style="stroke: #383838; stroke-width: 0.5;"/><text fill="#000000" font-family="Tahoma, sans-serif" font-size="12" font-weight="bold" lengthAdjust="spacingAndGlyphs" textLength="105" x="232.7768" y="50.4976">react-app-env.d</text><ellipse cx="74.3553" cy="282.242" fill="#F8F8F8" rx="38.3553" ry="13.242" style="stroke: #383838; stroke-width: 0.5;"/><text fill="#000000" font-family="Tahoma, sans-serif" font-size="12" lengthAdjust="spacingAndGlyphs" textLength="50" x="49.3553" y="285.9842">reducers</text><ellipse cx="428.3315" cy="46.8663" fill="#F8F8F8" rx="62.3315" ry="14.8663" style="stroke: #383838; stroke-width: 0.5;"/><text fill="#000000" font-family="Tahoma, sans-serif" font-size="12" font-weight="bold" lengthAdjust="spacingAndGlyphs" textLength="94" x="381.3315" y="50.6085">serviceWorker</text><!--entity _store--><rect fill="#F8F8F8" height="34.4844" rx="3" ry="3" style="stroke: #000000; stroke-width: 0.5;" width="50" x="46.5" y="204"/><text fill="#000000" font-family="Tahoma, sans-serif" font-size="12" lengthAdjust="spacingAndGlyphs" textLength="30" x="56.5" y="226.0059">store</text><!--entity _types--><rect fill="#F8F8F8" height="34.4844" rx="3" ry="3" style="stroke: #000000; stroke-width: 0.5;" width="51" x="132" y="326"/><text fill="#000000" font-family="Tahoma, sans-serif" font-size="12" lengthAdjust="spacingAndGlyphs" textLength="31" x="142" y="348.0059">types</text><!--link actions to _types--><path d="M212.71,294.0974 C203.527,302.065 190.907,313.0145 180.051,322.434 " fill="none" id="actions-_types" style="stroke: #000000; stroke-width: 0.5;"/><polygon fill="#000000" points="176.14,325.8268,185.5591,322.9493,179.9164,322.5498,180.3159,316.9071,176.14,325.8268" style="stroke: #000000; stroke-width: 0.5;"/><!--link App to List--><path d="M186.819,60.253 C186.42,67.434 185.91,76.621 185.47,84.549 " fill="none" id="App-List" style="stroke: #000000; stroke-width: 0.5;"/><polygon fill="#000000" points="185.178,89.795,189.6707,81.0305,185.4551,84.8027,181.683,80.5871,185.178,89.795" style="stroke: #000000; stroke-width: 0.5;"/><!--link <b>App.test</b> to App--><path d="M156.562,47 C159.05,47 161.537,47 164.025,47 " fill="none" id="&lt;b&gt;App.test&lt;/b&gt;-App" style="stroke: #000000; stroke-width: 1.0;"/><polygon fill="#000000" points="169.131,47,160.131,43,164.131,47,160.131,51,169.131,47" style="stroke: #000000; stroke-width: 1.0;"/><!--link <b>index</b> to App--><path d="M45.4609,35.14 C52.9713,28.554 63.2472,21.001 74,17.5 C108.654,6.217 122.106,4.107 156,17.5 C163.473,20.453 170.214,26.109 175.523,31.686 " fill="none" id="&lt;b&gt;index&lt;/b&gt;-App" style="stroke: #000000; stroke-width: 1.0;"/><polygon fill="#000000" points="178.962,35.499,175.9047,26.1367,175.6133,31.786,169.964,31.4946,178.962,35.499" style="stroke: #000000; stroke-width: 1.0;"/><!--link <b>index</b> to _store--><path d="M36.1721,60.095 C42.5484,88.956 58.7223,162.164 66.7833,198.651 " fill="none" id="&lt;b&gt;index&lt;/b&gt;-_store" style="stroke: #000000; stroke-width: 1.0;"/><polygon fill="#000000" points="67.9117,203.758,69.8761,194.107,66.8331,198.8757,62.0644,195.8327,67.9117,203.758" style="stroke: #000000; stroke-width: 1.0;"/><!--link _InputForm to _Input--><path d="M311.5,299.122 C311.5,305.756 311.5,313.5351 311.5,320.6329 " fill="none" id="_InputForm-_Input" style="stroke: #000000; stroke-width: 0.5;"/><polygon fill="#000000" points="311.5,325.8975,315.5,316.8975,311.5,320.8975,307.5,316.8975,311.5,325.8975" style="stroke: #000000; stroke-width: 0.5;"/><!--link List to actions--><path d="M187.254,115.888 C194.339,146.474 213.22,227.986 221.507,263.7605 " fill="none" id="List-actions" style="stroke: #000000; stroke-width: 0.5;"/><polygon fill="#000000" points="222.65,268.6953,224.5155,259.0247,221.5215,263.8243,216.7219,260.8303,222.65,268.6953" style="stroke: #000000; stroke-width: 0.5;"/><!--link List to _InputForm--><path d="M192.253,114.806 C212.954,143.656 269.78,222.855 296.824,260.5467 " fill="none" id="List-_InputForm" style="stroke: #000000; stroke-width: 0.5;"/><polygon fill="#000000" points="299.97,264.9312,297.973,255.2869,297.055,260.8688,291.4731,259.9509,299.97,264.9312" style="stroke: #000000; stroke-width: 0.5;"/><!--link List to _ListItem--><path d="M174.223,113.58 C166.712,120.582 156.256,130.329 146.956,138.999 " fill="none" id="List-_ListItem" style="stroke: #000000; stroke-width: 0.5;"/><polygon fill="#000000" points="143.052,142.638,152.3623,139.4259,146.7089,139.2282,146.9066,133.5748,143.052,142.638" style="stroke: #000000; stroke-width: 0.5;"/><!--link List to _store--><path d="M167.585,105.685 C145.191,108.865 106.137,117.877 85.5,143 C72.6818,158.604 70.0284,182.043 70.0576,198.96 " fill="none" id="List-_store" style="stroke: #000000; stroke-width: 0.5;"/><polygon fill="#000000" points="70.1445,203.985,73.9896,194.9178,70.0588,198.9857,65.9908,195.0549,70.1445,203.985" style="stroke: #000000; stroke-width: 0.5;"/><!--link List to _types--><path d="M183.124,116.13 C178.79,154.333 165.385,272.4982 159.888,320.9482 " fill="none" id="List-_types" style="stroke: #000000; stroke-width: 0.5;"/><polygon fill="#000000" points="159.32,325.9594,164.3094,317.4679,159.8838,320.9913,156.3604,316.5657,159.32,325.9594" style="stroke: #000000; stroke-width: 0.5;"/><!--link _ListItem to _types--><path d="M128.34,177.063 C134.128,209.8 147.287,284.2354 153.762,320.8545 " fill="none" id="_ListItem-_types" style="stroke: #000000; stroke-width: 0.5;"/><polygon fill="#000000" points="154.667,325.9735,157.0386,316.4145,153.7963,321.0499,149.1609,317.8076,154.667,325.9735" style="stroke: #000000; stroke-width: 0.5;"/><!--link reducers to _types--><path d="M90.1117,294.0974 C101.5169,302.2048 117.265,313.3996 130.67,322.9283 " fill="none" id="reducers-_types" style="stroke: #000000; stroke-width: 0.5;"/><polygon fill="#000000" points="134.748,325.8268,129.7284,317.3531,130.6722,322.9307,125.0946,323.8745,134.748,325.8268" style="stroke: #000000; stroke-width: 0.5;"/><!--link _store to reducers--><path d="M72.3198,238.122 C72.7201,245.995 73.2024,255.481 73.6115,263.5263 " fill="none" id="_store-reducers" style="stroke: #000000; stroke-width: 0.5;"/><polygon fill="#000000" points="73.8811,268.8288,77.4187,259.6372,73.6271,263.8353,69.4291,260.0436,73.8811,268.8288" style="stroke: #000000; stroke-width: 0.5;"/><script type="text/plantuml"><![CDATA[
@startuml

scale max 1920 width
top to bottom direction

skinparam nodesep 13
skinparam ranksep 27
skinparam monochrome true
skinparam shadowing false
skinparam defaultFontName Tahoma
skinparam defaultFontSize 12
skinparam roundCorner 6
skinparam dpi 150
skinparam arrowColor black
skinparam arrowThickness 0.5
skinparam packageTitleAlignment left

skinparam usecase {
  borderThickness 0.5
}

skinparam rectangle {
  borderThickness 0.5
}

skinparam component {
  borderThickness 1
}


(actions)
(App)
(<b>App.test</b>)
(<b>index</b>)
rectangle "Input" as _Input
rectangle "InputForm" as _InputForm
(List)
rectangle "ListItem" as _ListItem
(<b>react-app-env.d</b>)
(reducers)
(<b>serviceWorker</b>)
rectangle "store" as _store
rectangle "types" as _types


(actions) --> _types
(App) --> (List)
(<b>App.test</b>) -[thickness=1]> (App)
(<b>index</b>) -[thickness=1]> (App)
(<b>index</b>) -[thickness=1]> _store
_InputForm --> _Input
(List) ----> (actions)
(List) ----> _InputForm
(List) --> _ListItem
(List) ---> _store
(List) ----> _types
_ListItem ----> _types
(reducers) --> _types
_store --> (reducers)

@enduml


' View and edit on https://arkit.pro
]]></script></g></svg>